<svg width="131" height="35" viewBox="0 0 131 35" fill="none" xmlns="http://www.w3.org/2000/svg">
<g opacity="0.75">
<path d="M40.8524 28.6832C40.8524 28.2608 40.981 27.9286 41.2382 27.6867C41.499 27.4448 41.7997 27.3238 42.1402 27.3238C42.3322 27.3238 42.5043 27.3545 42.6564 27.4159C42.8086 27.4737 42.9299 27.5531 43.0205 27.6542C43.1147 27.7553 43.1926 27.8708 43.2541 28.0008C43.3157 28.1308 43.3483 28.2662 43.3519 28.407C43.3592 28.5442 43.3519 28.6832 43.3302 28.824H41.1621C41.1803 29.1345 41.2998 29.3692 41.5208 29.5281C41.7417 29.6833 42.0116 29.761 42.3304 29.761C42.6564 29.761 42.9408 29.6905 43.1835 29.5497V29.853C42.948 29.9794 42.6492 30.0426 42.2869 30.0426C41.8776 30.0426 41.5353 29.927 41.2599 29.696C40.9883 29.4649 40.8524 29.1273 40.8524 28.6832ZM43.0585 28.5532C43.0839 28.3257 43.0223 28.1109 42.8738 27.9087C42.7289 27.7065 42.4916 27.6054 42.162 27.6054C41.8939 27.6054 41.6639 27.6903 41.4719 27.86C41.2799 28.0261 41.1766 28.2571 41.1621 28.5532H43.0585Z" fill="white"/>
<path d="M45.3303 30.7033H45.0314V29.7068H45.3738C45.5404 29.3891 45.6617 29.0497 45.7378 28.6886C45.8139 28.3239 45.8501 27.8889 45.8465 27.3834H47.7103V29.7068H48.0906V30.7033H47.7863V29.983H45.3303V30.7033ZM46.1399 27.6596C46.129 28.4395 45.9841 29.1219 45.7052 29.7068H47.406V27.6596H46.1399Z" fill="white"/>
<path d="M50.3189 29.983H50.0526V27.3834H50.3623V29.4902L52.1283 27.3834H52.3946V29.983H52.0903V27.8762L50.3189 29.983Z" fill="white"/>
<path d="M54.9099 29.983H54.6002V27.3834H54.9099V28.5424H56.6052V27.3834H56.9095V29.983H56.6052V28.824H54.9099V29.983Z" fill="white"/>
<path d="M61.1645 29.5118C61.1645 29.6635 61.2423 29.7393 61.3981 29.7393C61.4561 29.7393 61.5231 29.7267 61.5992 29.7014V29.9505C61.5013 29.9866 61.4072 30.0047 61.3166 30.0047C61.0413 30.0047 60.891 29.8711 60.8656 29.6039C60.5939 29.8964 60.2371 30.0426 59.7951 30.0426C59.5452 30.0426 59.3315 29.9776 59.154 29.8476C58.9765 29.714 58.8877 29.5227 58.8877 29.2735C58.8877 28.9775 59 28.7626 59.2246 28.629C59.4492 28.4918 59.7209 28.4232 60.0397 28.4232C60.3186 28.4232 60.5921 28.4611 60.8602 28.537V28.3637C60.8602 28.1326 60.7877 27.9484 60.6428 27.8112C60.4979 27.674 60.2932 27.6054 60.0288 27.6054C59.6955 27.6054 59.384 27.6668 59.0942 27.7896V27.4863C59.4021 27.378 59.7245 27.3238 60.0614 27.3238C60.4092 27.3238 60.679 27.4177 60.871 27.6054C61.0666 27.7932 61.1645 28.0586 61.1645 28.4016V29.5118ZM59.2029 29.2573C59.2029 29.427 59.2663 29.557 59.393 29.6472C59.5198 29.7339 59.6738 29.7772 59.8549 29.7772C60.0542 29.7772 60.2425 29.7339 60.42 29.6472C60.5975 29.557 60.7442 29.4306 60.8602 29.2681V28.7915C60.5849 28.7193 60.3258 28.6832 60.0831 28.6832C59.8368 28.6832 59.6285 28.7301 59.4583 28.824C59.288 28.9143 59.2029 29.0587 59.2029 29.2573Z" fill="white"/>
<path d="M63.5602 29.983H63.1961L63.9732 28.9865C63.7667 28.9359 63.6055 28.8403 63.4896 28.6994C63.3736 28.5586 63.3157 28.3925 63.3157 28.2012C63.3157 27.9665 63.4026 27.7715 63.5765 27.6163C63.7504 27.461 63.9876 27.3834 64.2883 27.3834H65.5326V29.983H65.2229V29.019H64.3046L63.5602 29.983ZM63.8047 27.8058C63.6852 27.9033 63.6254 28.0351 63.6254 28.2012C63.6254 28.3673 63.687 28.4991 63.8101 28.5965C63.9333 28.694 64.1018 28.7428 64.3155 28.7428H65.2283V27.6596H64.3155C64.0981 27.6596 63.9279 27.7083 63.8047 27.8058Z" fill="white"/>
<path d="M73.0141 28.7644C73.0141 29.1544 72.8928 29.4649 72.65 29.696C72.4073 29.927 72.0886 30.0426 71.6937 30.0426C71.2916 30.0426 70.9656 29.9072 70.7156 29.6364C70.4693 29.3656 70.3461 29.0009 70.3461 28.5424C70.3461 28.1308 70.4204 27.7715 70.5689 27.4646C70.7211 27.1541 70.9185 26.923 71.1612 26.7714C71.3677 26.645 71.5814 26.553 71.8024 26.4952C72.027 26.4374 72.219 26.3887 72.3784 26.349C72.5378 26.3056 72.6682 26.2334 72.7696 26.1323V26.4573C72.6682 26.5367 72.5432 26.5963 72.3947 26.636C72.2498 26.6721 72.0813 26.7154 71.8893 26.766C71.701 26.8165 71.518 26.8942 71.3405 26.9989C71.0036 27.2047 70.7754 27.5766 70.6559 28.1145C70.7537 27.9232 70.9004 27.7715 71.096 27.6596C71.2916 27.5477 71.5053 27.4917 71.7372 27.4917C72.0958 27.4917 72.3983 27.6109 72.6446 27.8492C72.8909 28.0838 73.0141 28.3889 73.0141 28.7644ZM70.6559 28.6994C70.6559 29.0027 70.75 29.2537 70.9384 29.4523C71.1304 29.6508 71.3804 29.7501 71.6883 29.7501C71.9998 29.7501 72.248 29.6599 72.4327 29.4793C72.6174 29.2952 72.7098 29.0587 72.7098 28.7699C72.7098 28.481 72.6174 28.2445 72.4327 28.0604C72.248 27.8762 72.0034 27.7842 71.6991 27.7842C71.4238 27.7842 71.1884 27.8708 70.9928 28.0441C70.7971 28.2138 70.6848 28.4323 70.6559 28.6994Z" fill="white"/>
<path d="M74.8611 28.6832C74.8611 28.2608 74.9897 27.9286 75.2469 27.6867C75.5077 27.4448 75.8084 27.3238 76.1489 27.3238C76.3409 27.3238 76.513 27.3545 76.6651 27.4159C76.8173 27.4737 76.9386 27.5531 77.0292 27.6542C77.1234 27.7553 77.2012 27.8708 77.2628 28.0008C77.3244 28.1308 77.357 28.2662 77.3606 28.407C77.3679 28.5442 77.3606 28.6832 77.3389 28.824H75.1708C75.1889 29.1345 75.3085 29.3692 75.5295 29.5281C75.7504 29.6833 76.0203 29.761 76.3391 29.761C76.6651 29.761 76.9495 29.6905 77.1922 29.5497V29.853C76.9567 29.9794 76.6579 30.0426 76.2956 30.0426C75.8863 30.0426 75.544 29.927 75.2686 29.696C74.997 29.4649 74.8611 29.1273 74.8611 28.6832ZM77.0672 28.5532C77.0926 28.3257 77.031 28.1109 76.8825 27.9087C76.7376 27.7065 76.5003 27.6054 76.1706 27.6054C75.9026 27.6054 75.6726 27.6903 75.4806 27.86C75.2886 28.0261 75.1853 28.2571 75.1708 28.5532H77.0672Z" fill="white"/>
<path d="M81.2398 29.2898C81.2398 29.5353 81.1366 29.723 80.9301 29.853C80.7236 29.9794 80.4483 30.0426 80.1041 30.0426C79.7419 30.0426 79.4267 29.9776 79.1587 29.8476V29.5552C79.4231 29.6924 79.7274 29.761 80.0715 29.761C80.6439 29.761 80.9301 29.5931 80.9301 29.2573C80.9301 29.0984 80.8685 28.9829 80.7453 28.9107C80.6222 28.8385 80.4791 28.8023 80.3161 28.8023H79.7075V28.5207H80.3161C80.6892 28.5027 80.8757 28.3619 80.8757 28.0983C80.8757 27.9358 80.8015 27.813 80.6529 27.73C80.508 27.647 80.3179 27.6054 80.0824 27.6054C79.7709 27.6054 79.4756 27.6704 79.1967 27.8004V27.5134C79.4937 27.3834 79.7998 27.3184 80.115 27.3184C80.4483 27.3184 80.7091 27.3852 80.8975 27.5188C81.0895 27.6488 81.1855 27.8293 81.1855 28.0604C81.1855 28.2156 81.1402 28.3456 81.0496 28.4503C80.9627 28.5514 80.8413 28.6182 80.6855 28.6507C80.8413 28.6904 80.9717 28.7662 81.0768 28.8782C81.1855 28.9901 81.2398 29.1273 81.2398 29.2898Z" fill="white"/>
<path d="M83.504 29.6797C83.236 29.4342 83.1019 29.102 83.1019 28.6832C83.1019 28.2644 83.236 27.934 83.504 27.6921C83.7757 27.4466 84.0981 27.3238 84.4713 27.3238C84.848 27.3238 85.1704 27.4466 85.4385 27.6921C85.7101 27.934 85.846 28.2644 85.846 28.6832C85.846 29.102 85.7101 29.4342 85.4385 29.6797C85.1704 29.9216 84.848 30.0426 84.4713 30.0426C84.0981 30.0426 83.7757 29.9216 83.504 29.6797ZM85.232 29.4631C85.4348 29.2717 85.5363 29.0118 85.5363 28.6832C85.5363 28.3546 85.4348 28.0947 85.232 27.9033C85.0291 27.712 84.7774 27.6163 84.4767 27.6163C84.176 27.6163 83.9224 27.712 83.716 27.9033C83.5131 28.0947 83.4117 28.3546 83.4117 28.6832C83.4117 29.0118 83.5131 29.2717 83.716 29.4631C83.9224 29.6544 84.176 29.7501 84.4767 29.7501C84.7774 29.7501 85.0291 29.6544 85.232 29.4631Z" fill="white"/>
<path d="M88.181 29.983H87.8713V27.3834H90.1806V29.983H89.8764V27.6704H88.181V29.983Z" fill="white"/>
<path d="M94.4356 29.5118C94.4356 29.6635 94.5135 29.7393 94.6692 29.7393C94.7272 29.7393 94.7942 29.7267 94.8703 29.7014V29.9505C94.7725 29.9866 94.6783 30.0047 94.5877 30.0047C94.3124 30.0047 94.1621 29.8711 94.1367 29.6039C93.865 29.8964 93.5082 30.0426 93.0663 30.0426C92.8163 30.0426 92.6026 29.9776 92.4251 29.8476C92.2476 29.714 92.1588 29.5227 92.1588 29.2735C92.1588 28.9775 92.2711 28.7626 92.4957 28.629C92.7203 28.4918 92.992 28.4232 93.3108 28.4232C93.5897 28.4232 93.8632 28.4611 94.1313 28.537V28.3637C94.1313 28.1326 94.0588 27.9484 93.9139 27.8112C93.769 27.674 93.5644 27.6054 93.2999 27.6054C92.9666 27.6054 92.6551 27.6668 92.3653 27.7896V27.4863C92.6732 27.378 92.9956 27.3238 93.3325 27.3238C93.6803 27.3238 93.9502 27.4177 94.1422 27.6054C94.3378 27.7932 94.4356 28.0586 94.4356 28.4016V29.5118ZM92.474 29.2573C92.474 29.427 92.5374 29.557 92.6642 29.6472C92.791 29.7339 92.9449 29.7772 93.126 29.7772C93.3253 29.7772 93.5136 29.7339 93.6912 29.6472C93.8687 29.557 94.0154 29.4306 94.1313 29.2681V28.7915C93.856 28.7193 93.597 28.6832 93.3543 28.6832C93.1079 28.6832 92.8996 28.7301 92.7294 28.824C92.5591 28.9143 92.474 29.0587 92.474 29.2573Z" fill="white"/>
<path d="M96.5324 28.6994C96.5324 28.3962 96.6031 28.138 96.7444 27.925C96.8893 27.7083 97.065 27.5549 97.2714 27.4646C97.4779 27.3708 97.7007 27.3238 97.9398 27.3238C98.2586 27.3238 98.5212 27.3942 98.7277 27.535V27.8329C98.5248 27.6813 98.2749 27.6054 97.9778 27.6054C97.6663 27.6054 97.3982 27.6975 97.1736 27.8816C96.9527 28.0658 96.8422 28.3366 96.8422 28.694C96.8422 29.037 96.949 29.3006 97.1628 29.4847C97.3801 29.6689 97.6409 29.761 97.9452 29.761C98.2459 29.761 98.5158 29.6905 98.7549 29.5497V29.8584C98.5085 29.9812 98.2242 30.0426 97.9018 30.0426C97.5323 30.0426 97.2117 29.927 96.94 29.696C96.6683 29.4649 96.5324 29.1327 96.5324 28.6994Z" fill="white"/>
<path d="M101.086 29.983H100.776V27.3834H101.086V28.5424H102.782V27.3834H103.086V29.983H102.782V28.824H101.086V29.983Z" fill="white"/>
<path d="M107.341 29.5118C107.341 29.6635 107.419 29.7393 107.574 29.7393C107.632 29.7393 107.699 29.7267 107.775 29.7014V29.9505C107.678 29.9866 107.583 30.0047 107.493 30.0047C107.218 30.0047 107.067 29.8711 107.042 29.6039C106.77 29.8964 106.413 30.0426 105.971 30.0426C105.721 30.0426 105.508 29.9776 105.33 29.8476C105.153 29.714 105.064 29.5227 105.064 29.2735C105.064 28.9775 105.176 28.7626 105.401 28.629C105.625 28.4918 105.897 28.4232 106.216 28.4232C106.495 28.4232 106.768 28.4611 107.036 28.537V28.3637C107.036 28.1326 106.964 27.9484 106.819 27.8112C106.674 27.674 106.47 27.6054 106.205 27.6054C105.872 27.6054 105.56 27.6668 105.27 27.7896V27.4863C105.578 27.378 105.901 27.3238 106.238 27.3238C106.585 27.3238 106.855 27.4177 107.047 27.6054C107.243 27.7932 107.341 28.0586 107.341 28.4016V29.5118ZM105.379 29.2573C105.379 29.427 105.443 29.557 105.569 29.6472C105.696 29.7339 105.85 29.7772 106.031 29.7772C106.23 29.7772 106.419 29.7339 106.596 29.6472C106.774 29.557 106.921 29.4306 107.036 29.2681V28.7915C106.761 28.7193 106.502 28.6832 106.259 28.6832C106.013 28.6832 105.805 28.7301 105.635 28.824C105.464 28.9143 105.379 29.0587 105.379 29.2573Z" fill="white"/>
<path d="M109.736 29.983H109.372L110.149 28.9865C109.943 28.9359 109.782 28.8403 109.666 28.6994C109.55 28.5586 109.492 28.3925 109.492 28.2012C109.492 27.9665 109.579 27.7715 109.753 27.6163C109.927 27.461 110.164 27.3834 110.465 27.3834H111.709V29.983H111.399V29.019H110.481L109.736 29.983ZM109.981 27.8058C109.861 27.9033 109.802 28.0351 109.802 28.2012C109.802 28.3673 109.863 28.4991 109.986 28.5965C110.11 28.694 110.278 28.7428 110.492 28.7428H111.405V27.6596H110.492C110.274 27.6596 110.104 27.7083 109.981 27.8058Z" fill="white"/>
<path d="M116.49 28.6994C116.49 28.3962 116.56 28.138 116.702 27.925C116.847 27.7083 117.022 27.5549 117.229 27.4646C117.435 27.3708 117.658 27.3238 117.897 27.3238C118.216 27.3238 118.479 27.3942 118.685 27.535V27.8329C118.482 27.6813 118.232 27.6054 117.935 27.6054C117.624 27.6054 117.356 27.6975 117.131 27.8816C116.91 28.0658 116.8 28.3366 116.8 28.694C116.8 29.037 116.906 29.3006 117.12 29.4847C117.337 29.6689 117.598 29.761 117.903 29.761C118.203 29.761 118.473 29.6905 118.712 29.5497V29.8584C118.466 29.9812 118.182 30.0426 117.859 30.0426C117.49 30.0426 117.169 29.927 116.897 29.696C116.626 29.4649 116.49 29.1327 116.49 28.6994Z" fill="white"/>
<path d="M120.496 28.6832C120.496 28.2608 120.625 27.9286 120.882 27.6867C121.143 27.4448 121.443 27.3238 121.784 27.3238C121.976 27.3238 122.148 27.3545 122.3 27.4159C122.452 27.4737 122.574 27.5531 122.664 27.6542C122.758 27.7553 122.836 27.8708 122.898 28.0008C122.959 28.1308 122.992 28.2662 122.996 28.407C123.003 28.5442 122.996 28.6832 122.974 28.824H120.806C120.824 29.1345 120.944 29.3692 121.164 29.5281C121.385 29.6833 121.655 29.761 121.974 29.761C122.3 29.761 122.585 29.6905 122.827 29.5497V29.853C122.592 29.9794 122.293 30.0426 121.931 30.0426C121.521 30.0426 121.179 29.927 120.904 29.696C120.632 29.4649 120.496 29.1273 120.496 28.6832ZM122.702 28.5532C122.728 28.3257 122.666 28.1109 122.517 27.9087C122.373 27.7065 122.135 27.6054 121.806 27.6054C121.538 27.6054 121.308 27.6903 121.116 27.86C120.924 28.0261 120.82 28.2571 120.806 28.5532H122.702Z" fill="white"/>
<path d="M125.931 29.983H125.621V27.6704H124.61V27.3834H126.941V27.6704H125.931V29.983Z" fill="white"/>
<path d="M130.006 29.983H128.81V27.3834H129.12V28.3312H130.006C130.306 28.3312 130.547 28.4088 130.728 28.564C130.909 28.7193 131 28.9161 131 29.1544C131 29.3963 130.909 29.5949 130.728 29.7501C130.547 29.9054 130.306 29.983 130.006 29.983ZM129.114 28.6074V29.7068H129.962C130.187 29.7068 130.362 29.6581 130.489 29.5606C130.62 29.4631 130.685 29.3277 130.685 29.1544C130.685 28.9811 130.62 28.8475 130.489 28.7536C130.359 28.6561 130.183 28.6074 129.962 28.6074H129.114Z" fill="white"/>
</g>
<path d="M41.4273 17.7512C41.044 16.6884 40.8524 15.5675 40.8524 14.3885C40.8524 13.2094 41.044 12.0885 41.4273 11.0257C41.8271 9.96291 42.3936 9.00805 43.1267 8.16113C43.8598 7.29761 44.8261 6.61675 46.0257 6.11856C47.2253 5.60377 48.5665 5.34637 50.0494 5.34637C51.5322 5.34637 52.8651 5.60377 54.048 6.11856C55.2476 6.61675 56.214 7.29761 56.947 8.16113C57.6968 9.00805 58.2633 9.96291 58.6465 11.0257C59.0463 12.0885 59.2463 13.2094 59.2463 14.3885C59.2463 15.5675 59.0463 16.6884 58.6465 17.7512C58.2633 18.814 57.6968 19.7772 56.947 20.6407C56.214 21.4876 55.2476 22.1685 54.048 22.6833C52.8651 23.1815 51.5322 23.4306 50.0494 23.4306C48.5665 23.4306 47.2253 23.1815 46.0257 22.6833C44.8261 22.1685 43.8598 21.4876 43.1267 20.6407C42.3936 19.7772 41.8271 18.814 41.4273 17.7512ZM54.6978 18.922C55.7974 17.6931 56.3472 16.1819 56.3472 14.3885C56.3472 12.595 55.7974 11.0838 54.6978 9.85497C53.6148 8.62611 52.0653 8.01168 50.0494 8.01168C48.05 8.01168 46.5006 8.62611 45.4009 9.85497C44.3013 11.0838 43.7515 12.595 43.7515 14.3885C43.7515 16.1819 44.3013 17.6931 45.4009 18.922C46.5006 20.1508 48.05 20.7653 50.0494 20.7653C52.0653 20.7653 53.6148 20.1508 54.6978 18.922Z" fill="white"/>
<path d="M64.1827 12.7943C65.2823 11.4824 66.6735 10.8264 68.3563 10.8264C69.8558 10.8264 71.0554 11.2831 71.9551 12.1964C72.8548 13.0932 73.3046 14.2639 73.3046 15.7087V23.1067H70.6305V16.0574C70.6305 15.1274 70.3723 14.4217 69.8558 13.9401C69.3393 13.4419 68.6645 13.1928 67.8315 13.1928C66.5152 13.1928 65.399 13.8571 64.4826 15.1856V23.1067H61.8085V11.1503H64.1827V12.7943Z" fill="white"/>
<path d="M75.7511 17.1285C75.7511 16.0989 75.9343 15.169 76.3009 14.3386C76.6674 13.4917 77.1506 12.8275 77.7504 12.3459C78.3502 11.8477 79 11.4741 79.6998 11.225C80.3995 10.9593 81.1076 10.8264 81.824 10.8264C82.7404 10.8264 83.5651 10.9676 84.2982 11.2499C85.048 11.5322 85.6478 11.9141 86.0976 12.3957C86.5475 12.8773 86.914 13.4336 87.1972 14.0646C87.4805 14.6957 87.6304 15.3599 87.6471 16.0574C87.6637 16.7382 87.6054 17.4274 87.4721 18.1249H78.4502C78.5835 19.1378 79.0833 19.9017 79.9497 20.4165C80.816 20.9147 81.849 21.1638 83.0486 21.1638C84.4148 21.1638 85.6811 20.8815 86.8474 20.3169V22.6085C85.6977 23.1566 84.2649 23.4306 82.5488 23.4306C80.5994 23.4306 78.975 22.8826 77.6754 21.7865C76.3925 20.6905 75.7511 19.1378 75.7511 17.1285ZM85.0729 16.1321C85.1729 15.4513 84.9646 14.7704 84.4482 14.0896C83.9483 13.3921 83.1153 13.0434 81.949 13.0434C80.9993 13.0434 80.1829 13.3174 79.4998 13.8654C78.8334 14.4134 78.4752 15.169 78.4252 16.1321H85.0729Z" fill="white"/>
<path d="M93.4914 23.1067H90.6424V5.6702H93.3165L102.738 18.4238C102.722 18.0252 102.713 17.3859 102.713 16.5058V5.6702H105.562V23.1067H102.888L93.4664 10.3532C93.4831 10.7517 93.4914 11.3827 93.4914 12.2463V23.1067Z" fill="white"/>
<path d="M108.309 17.1285C108.309 16.0989 108.492 15.169 108.858 14.3386C109.225 13.4917 109.708 12.8275 110.308 12.3459C110.908 11.8477 111.557 11.4741 112.257 11.225C112.957 10.9593 113.665 10.8264 114.381 10.8264C115.298 10.8264 116.123 10.9676 116.856 11.2499C117.605 11.5322 118.205 11.9141 118.655 12.3957C119.105 12.8773 119.471 13.4336 119.755 14.0646C120.038 14.6957 120.188 15.3599 120.204 16.0574C120.221 16.7382 120.163 17.4274 120.03 18.1249H111.008C111.141 19.1378 111.641 19.9017 112.507 20.4165C113.373 20.9147 114.406 21.1638 115.606 21.1638C116.972 21.1638 118.239 20.8815 119.405 20.3169V22.6085C118.255 23.1566 116.822 23.4306 115.106 23.4306C113.157 23.4306 111.532 22.8826 110.233 21.7865C108.95 20.6905 108.309 19.1378 108.309 17.1285ZM117.63 16.1321C117.73 15.4513 117.522 14.7704 117.006 14.0896C116.506 13.3921 115.673 13.0434 114.506 13.0434C113.557 13.0434 112.74 13.3174 112.057 13.8654C111.391 14.4134 111.033 15.169 110.983 16.1321H117.63Z" fill="white"/>
<path d="M123.625 7.5384L126.274 6.89075V11.1503H130.622V13.4917H126.274V18.9718C126.274 19.7357 126.449 20.2754 126.799 20.5909C127.165 20.9064 127.748 21.0642 128.548 21.0642C129.364 21.0642 130.172 20.9064 130.972 20.5909V22.8826C130.006 23.2313 128.931 23.4056 127.748 23.4056C126.515 23.4056 125.516 23.0818 124.749 22.4342C124 21.7865 123.625 20.7985 123.625 19.47V13.4917H121.475V11.1503H123.625V7.5384Z" fill="white"/>
<ellipse cx="17.1268" cy="33.9801" rx="1.02331" ry="1.01994" fill="#FF3E2D"/>
<path fill-rule="evenodd" clip-rule="evenodd" d="M13.4643 30.7056C13.0785 30.7056 12.7656 31.0097 12.5032 31.2926C12.2868 31.5258 11.9771 31.6719 11.6331 31.6719C10.9787 31.6719 10.4482 31.1431 10.4482 30.4909C10.4482 29.8386 10.9787 29.3099 11.6331 29.3099C11.977 29.3099 12.2867 29.4559 12.5032 29.6892C12.7656 29.972 13.0785 30.2761 13.4643 30.2761C13.8502 30.2761 14.1631 29.972 14.4255 29.6892C14.642 29.456 14.9517 29.3099 15.2955 29.3099C15.6394 29.3099 15.9491 29.4559 16.1655 29.6892C16.428 29.972 16.741 30.2761 17.1268 30.2761C17.5126 30.2761 17.8255 29.972 18.088 29.6892C18.3045 29.4559 18.6141 29.3099 18.958 29.3099C19.302 29.3099 19.6117 29.456 19.8281 29.6893C20.0905 29.9721 20.4033 30.2761 20.789 30.2761C21.1748 30.2761 21.4876 29.9721 21.7499 29.6893C21.9664 29.456 22.2761 29.3099 22.6201 29.3099C23.2745 29.3099 23.805 29.8387 23.805 30.4909C23.805 31.1432 23.2745 31.6719 22.6201 31.6719C22.2761 31.6719 21.9663 31.5258 21.7499 31.2924C21.4876 31.0097 21.1747 30.7056 20.789 30.7056C20.4034 30.7056 20.0905 31.0097 19.8282 31.2924C19.6118 31.5258 19.302 31.6719 18.958 31.6719C18.6141 31.6719 18.3044 31.5258 18.0879 31.2926C17.8255 31.0098 17.5126 30.7056 17.1268 30.7056C16.741 30.7056 16.4281 31.0098 16.1656 31.2926C15.9492 31.5258 15.6395 31.6719 15.2955 31.6719C14.9516 31.6719 14.6419 31.5258 14.4255 31.2926C14.163 31.0098 13.8501 30.7056 13.4643 30.7056Z" fill="#FF3E2D"/>
<path fill-rule="evenodd" clip-rule="evenodd" d="M9.88289 26.8945C9.26778 26.8945 8.76637 27.4205 8.2639 27.7753C8.04429 27.9304 7.77603 28.0215 7.48641 28.0215C6.74278 28.0215 6.13995 27.4207 6.13995 26.6795C6.13995 25.9383 6.74278 25.3375 7.48641 25.3375C7.77621 25.3375 8.04463 25.4287 8.26432 25.584C8.76663 25.939 9.26799 26.4651 9.88307 26.465C10.4981 26.465 10.9994 25.939 11.5016 25.584C11.7213 25.4288 11.9897 25.3375 12.2796 25.3375C12.5692 25.3375 12.8374 25.4286 13.057 25.5837C13.5596 25.9386 14.0612 26.4649 14.6765 26.4648C15.2917 26.4648 15.7932 25.9386 16.2957 25.5838C16.5153 25.4287 16.7836 25.3375 17.0732 25.3375C17.3629 25.3375 17.6311 25.4286 17.8507 25.5837C18.3533 25.9386 18.8547 26.4647 19.4699 26.4646C20.085 26.4646 20.5864 25.9386 21.0888 25.5838C21.3084 25.4287 21.5767 25.3375 21.8664 25.3375C22.1558 25.3375 22.424 25.4285 22.6435 25.5834C23.1463 25.9382 23.6479 26.4645 24.2633 26.4644C24.8786 26.4644 25.3801 25.9383 25.8829 25.5835C26.1024 25.4286 26.3706 25.3375 26.66 25.3375C27.4037 25.3375 28.0065 25.9383 28.0065 26.6795C28.0065 27.4207 27.4037 28.0215 26.66 28.0215C26.3703 28.0215 26.1019 27.9303 25.8822 27.7751C25.3798 27.4201 24.8783 26.8939 24.2631 26.8939C23.648 26.8939 23.1466 27.4201 22.6442 27.7751C22.4246 27.9303 22.1562 28.0215 21.8664 28.0215C21.5766 28.0215 21.3082 27.9303 21.0886 27.7751C20.5862 27.4202 20.0848 26.8941 19.4697 26.8941C18.8547 26.8941 18.3534 27.4201 17.8511 27.7751C17.6314 27.9303 17.363 28.0215 17.0732 28.0215C16.7837 28.0215 16.5154 27.9304 16.2958 27.7754C15.7932 27.4205 15.2916 26.8943 14.6763 26.8943C14.0611 26.8943 13.5596 27.4205 13.057 27.7754C12.8374 27.9304 12.5692 28.0215 12.2796 28.0215C11.99 28.0215 11.7217 27.9304 11.5021 27.7754C10.9996 27.4206 10.4981 26.8945 9.88289 26.8945Z" fill="#FF3E2D"/>
<path fill-rule="evenodd" clip-rule="evenodd" d="M22.108 22.8144C21.4953 22.8144 21 23.3319 20.5259 23.7201C20.2749 23.9256 19.9536 24.049 19.6034 24.049C19.2531 24.049 18.9318 23.9256 18.6808 23.7199C18.2069 23.3318 17.7117 22.8144 17.0991 22.8144C16.4866 22.8144 15.9914 23.3318 15.5175 23.7199C15.2665 23.9256 14.9451 24.049 14.5949 24.049C14.2446 24.049 13.9232 23.9256 13.6722 23.7199C13.1983 23.3318 12.7031 22.8144 12.0906 22.8144C11.478 22.8144 10.9828 23.3318 10.509 23.7199C10.2579 23.9256 9.93657 24.049 9.58628 24.049C9.23608 24.049 8.91479 23.9256 8.66379 23.7201C8.18975 23.3319 7.69446 22.8144 7.08177 22.8144C6.46905 22.8144 5.97373 23.332 5.49968 23.7202C5.24867 23.9257 4.92737 24.0491 4.57716 24.0491C3.77404 24.0491 3.12299 23.4002 3.12299 22.5997C3.12299 21.7993 3.77404 21.1503 4.57716 21.1503C4.92734 21.1503 5.24861 21.2737 5.49961 21.4792C5.97367 21.8674 6.46898 22.3849 7.08167 22.3849C7.6944 22.3849 8.18974 21.8673 8.66381 21.4791C8.91481 21.2736 9.23609 21.1502 9.58628 21.1502C9.93659 21.1502 10.258 21.2737 10.509 21.4793C10.9829 21.8675 11.478 22.3849 12.0906 22.3849C12.7031 22.3849 13.1983 21.8675 13.6721 21.4793C13.9232 21.2737 14.2445 21.1502 14.5949 21.1502C14.9452 21.1502 15.2665 21.2737 15.5176 21.4793C15.9914 21.8675 16.4866 22.3849 17.0991 22.3849C17.7117 22.3849 18.2069 21.8675 18.6807 21.4793C18.9317 21.2737 19.2531 21.1502 19.6034 21.1502C19.9536 21.1502 20.2749 21.2736 20.5259 21.4792C21 21.8674 21.4953 22.3849 22.108 22.3849C22.7207 22.3849 23.216 21.8674 23.69 21.4792C23.941 21.2736 24.2623 21.1502 24.6125 21.1502C24.9628 21.1502 25.2841 21.2736 25.5351 21.4792C26.0091 21.8674 26.5044 22.3849 27.117 22.3849C27.7297 22.3849 28.225 21.8674 28.699 21.4792C28.95 21.2736 29.2713 21.1502 29.6216 21.1502C30.4247 21.1502 31.0757 21.7992 31.0757 22.5996C31.0757 23.4001 30.4247 24.049 29.6216 24.049C29.2714 24.049 28.9501 23.9256 28.6991 23.7201C28.225 23.3319 27.7297 22.8144 27.117 22.8144C26.5044 22.8144 26.0091 23.3319 25.535 23.7201C25.284 23.9256 24.9627 24.049 24.6125 24.049C24.2623 24.049 23.9411 23.9256 23.6901 23.7201C23.216 23.3319 22.7207 22.8144 22.108 22.8144Z" fill="#FF3E2D"/>
<path fill-rule="evenodd" clip-rule="evenodd" d="M6.43613 18.4663C5.33335 18.4663 4.36797 19.5515 3.29716 19.8151C3.17264 19.8458 3.04243 19.8621 2.90841 19.8621C2.01606 19.8621 1.29266 19.1411 1.29266 18.2516C1.29266 17.3622 2.01606 16.6412 2.90841 16.6412C3.04237 16.6412 3.17251 16.6575 3.29698 16.6881C4.36791 16.9516 5.33342 18.0369 6.43629 18.0369C7.5391 18.0369 8.50455 16.9517 9.57541 16.6882C9.69989 16.6576 9.83004 16.6413 9.96401 16.6413C10.098 16.6413 10.2283 16.6576 10.3528 16.6882C11.4235 16.9519 12.3888 18.0369 13.4915 18.0369C14.5942 18.0369 15.5596 16.9519 16.6303 16.6882C16.7548 16.6576 16.885 16.6413 17.0191 16.6413C17.153 16.6413 17.2832 16.6576 17.4076 16.6882C18.4785 16.9517 19.444 18.0369 20.5468 18.0369C21.6496 18.0369 22.6151 16.9517 23.6859 16.6882C23.8104 16.6576 23.9406 16.6413 24.0745 16.6413C24.2083 16.6413 24.3383 16.6575 24.4627 16.6881C25.5339 16.9514 26.4996 18.0369 27.6027 18.0369C28.7058 18.0369 29.6715 16.9514 30.7427 16.6881C30.8671 16.6575 30.9971 16.6413 31.1309 16.6413C32.0232 16.6413 32.7466 17.3623 32.7466 18.2518C32.7466 19.1412 32.0232 19.8622 31.1309 19.8622C30.997 19.8622 30.8669 19.8459 30.7424 19.8153C29.6713 19.5519 28.7057 18.4663 27.6027 18.4663C26.4997 18.4663 25.534 19.5519 24.463 19.8153C24.3385 19.8459 24.2084 19.8622 24.0745 19.8622C23.9405 19.8622 23.8102 19.8459 23.6856 19.8152C22.6149 19.5515 21.6495 18.4663 20.5468 18.4663C19.444 18.4663 18.4787 19.5515 17.4079 19.8152C17.2834 19.8459 17.1531 19.8622 17.0191 19.8622C16.8849 19.8622 16.7546 19.8459 16.63 19.8152C15.5594 19.5514 14.5942 18.4663 13.4915 18.4663C12.3889 18.4663 11.4237 19.5514 10.3531 19.8152C10.2285 19.8459 10.0981 19.8622 9.96401 19.8622C9.82999 19.8622 9.69979 19.8459 9.57528 19.8153C8.50441 19.5517 7.53897 18.4663 6.43613 18.4663Z" fill="#FF3E2D"/>
<path fill-rule="evenodd" clip-rule="evenodd" d="M6.68368 13.7425C5.16884 13.7425 3.72341 15.3528 2.20856 15.3528C1.19723 15.3528 0.37738 14.5356 0.37738 13.5276C0.37738 12.5196 1.19723 11.7025 2.20856 11.7025C3.72351 11.7025 5.16906 13.313 6.68401 13.313H7.64308C9.15802 13.313 10.6035 11.7025 12.1185 11.7025C13.6334 11.7025 15.0789 13.313 16.5939 13.313H17.5534C19.0684 13.313 20.5139 11.7025 22.0288 11.7025C22.0558 11.7025 22.0826 11.7031 22.1093 11.7042C22.136 11.7031 22.1628 11.7025 22.1897 11.7025C23.7047 11.7025 25.1502 13.313 26.6651 13.313H27.463C28.9779 13.313 30.4234 11.7025 31.9384 11.7025C32.9497 11.7025 33.7696 12.5197 33.7696 13.5277C33.7696 14.5357 32.9497 15.3528 31.9384 15.3528C30.4235 15.3528 28.9781 13.7425 27.4632 13.7425H26.6649C25.1501 13.7425 23.7046 15.3528 22.1897 15.3528C22.1628 15.3528 22.136 15.3522 22.1093 15.3511C22.0826 15.3522 22.0558 15.3528 22.0288 15.3528C20.514 15.3528 19.0685 13.7425 17.5537 13.7425H16.5937C15.0788 13.7425 13.6333 15.3528 12.1185 15.3528C10.6036 15.3528 9.15817 13.7425 7.6433 13.7425H6.68368Z" fill="#FF3E2D"/>
<path fill-rule="evenodd" clip-rule="evenodd" d="M26.0432 6.66153C26.7229 7.26366 27.4479 8.05223 28.356 8.05223C29.264 8.05223 29.989 7.26366 30.6687 6.66153C31.0491 6.32446 31.5503 6.11972 32.0993 6.11972C33.2891 6.11972 34.2537 7.08107 34.2537 8.26696C34.2537 9.45285 33.2891 10.4142 32.0993 10.4142C31.5502 10.4142 31.0491 10.2095 30.6687 9.87238C29.989 9.27024 29.264 8.48168 28.356 8.48168C27.4479 8.48168 26.7229 9.27024 26.0432 9.87238C25.6628 10.2095 25.1617 10.4142 24.6126 10.4142C24.0633 10.4142 23.5621 10.2093 23.1816 9.87207C22.5022 9.26996 21.7774 8.48168 20.8697 8.48168C19.9619 8.48168 19.2371 9.26996 18.5578 9.87207C18.1772 10.2093 17.676 10.4142 17.1267 10.4142C16.5776 10.4142 16.0764 10.2094 15.6959 9.87225C15.0164 9.27012 14.2915 8.48168 13.3836 8.48168C12.4756 8.48168 11.7507 9.27012 11.0712 9.87225C10.6907 10.2094 10.1895 10.4142 9.64038 10.4142C9.09121 10.4142 8.59003 10.2094 8.20953 9.87222C7.53004 9.2701 6.80514 8.48168 5.89724 8.48168C4.98934 8.48168 4.26444 9.27011 3.58494 9.87224C3.20444 10.2094 2.70326 10.4142 2.15409 10.4142C0.964283 10.4142 -0.000244141 9.45287 -0.000244141 8.26698C-0.000244141 7.0811 0.964283 6.11974 2.15409 6.11974C2.70324 6.11974 3.20441 6.32454 3.5849 6.66169C4.26442 7.26381 4.98932 8.05223 5.89722 8.05223C6.80513 8.05223 7.53004 7.26379 8.20956 6.66167C8.59005 6.32452 9.09122 6.11972 9.64038 6.11972C10.1895 6.11972 10.6907 6.32451 11.0712 6.66166C11.7507 7.26378 12.4756 8.05223 13.3836 8.05223C14.2915 8.05223 15.0164 7.26378 15.6959 6.66166C16.0764 6.32451 16.5776 6.11972 17.1267 6.11972C17.676 6.11972 18.1772 6.32459 18.5577 6.66183C19.2371 7.26394 19.9619 8.05223 20.8697 8.05223C21.7774 8.05223 22.5022 7.26394 23.1816 6.66183C23.5621 6.32459 24.0633 6.11972 24.6126 6.11972C25.1617 6.11972 25.6628 6.32446 26.0432 6.66153Z" fill="#FF3E2D"/>
<path fill-rule="evenodd" clip-rule="evenodd" d="M31.1285 2.41564C31.1285 3.74977 30.0434 4.83129 28.7049 4.83129C27.9568 4.83129 27.288 4.49353 26.8434 3.96267C26.3111 3.32707 25.6549 2.63042 24.8259 2.63042C23.9968 2.63042 23.3407 3.32707 22.8084 3.96267C22.3638 4.49353 21.6949 4.83129 20.9469 4.83129C20.1989 4.83129 19.5301 4.4936 19.0855 3.96284C18.5531 3.32718 17.8969 2.63042 17.0677 2.63042C16.2385 2.63042 15.5823 3.32718 15.0498 3.96284C14.6052 4.4936 13.9364 4.83129 13.1885 4.83129C12.2025 4.83129 11.3541 4.24451 10.9755 3.40221C10.7896 2.98858 10.4266 2.63042 9.97307 2.63042C9.51957 2.63042 9.15648 2.98861 8.97059 3.40226C8.59203 4.24461 7.74358 4.83143 6.75761 4.83143C5.41908 4.83143 4.33398 3.74991 4.33398 2.41578C4.33398 1.08166 5.41908 0.000139263 6.75761 0.000139263C7.74353 0.000139263 8.59196 0.586907 8.97054 1.42919C9.15645 1.84282 9.51953 2.20098 9.97301 2.20098C10.4265 2.20098 10.7896 1.84279 10.9755 1.42914C11.3541 0.586807 12.2025 0 13.1885 0C13.9365 0 14.6053 0.337732 15.0499 0.868545C15.5823 1.50421 16.2385 2.20098 17.0677 2.20098C17.8969 2.20098 18.5531 1.50421 19.0855 0.868545C19.53 0.337732 20.1989 0 20.9469 0C21.695 0 22.3639 0.337801 22.8084 0.868709C23.3407 1.50433 23.9968 2.20098 24.8259 2.20098C25.6549 2.20098 26.311 1.50433 26.8433 0.868709C27.2879 0.337801 27.9568 0 28.7049 0C30.0434 0 31.1285 1.08152 31.1285 2.41564Z" fill="#FF3E2D"/>
</svg>
