<svg width="267" height="132" viewBox="0 0 267 132" fill="none" xmlns="http://www.w3.org/2000/svg">
<path d="M4.44294 99.4585C4.44363 99.4577 4.44446 99.4571 4.44539 99.4566C34.5462 83.0075 68.1467 69.2782 99.5413 55.479C153.553 32.8767 207.779 10.6662 262.553 -10.0116C272.986 -13.4608 291.559 -16.8351 294.095 -2.27243C294.205 -1.64262 294.221 -0.990767 294.189 -0.352287C293.085 21.5028 288.936 43.2336 286.077 64.9644C278.714 113.452 270.204 161.773 261.905 210.101C259.045 226.199 238.719 234.532 225.714 224.23C194.752 203.481 163.554 182.932 132.975 161.714C132.396 161.313 131.845 160.863 131.38 160.334C122.469 150.19 131.598 136.105 140.398 129.011C165.654 104.318 192.409 83.2684 216.451 57.485C217.372 56.497 218.146 55.3369 218.567 54.0533C222.718 41.383 204.691 53.6886 198.562 57.5795C163.319 81.6741 128.939 107.24 91.7825 128.416C72.803 138.781 50.682 129.923 31.711 124.139C14.7019 117.152 -10.2232 110.113 4.44137 99.46C4.44193 99.4596 4.44249 99.4591 4.44294 99.4585Z" fill="white"/>
</svg>
