<svg width="20" height="20" viewBox="0 0 20 20" fill="none" xmlns="http://www.w3.org/2000/svg">
<path fill-rule="evenodd" clip-rule="evenodd" d="M16.9671 15.0089C16.9671 16.8449 15.4074 18.3333 13.4835 18.3333H6.51621C4.59226 18.3333 3.03259 16.8449 3.03259 15.0089V10.9442C3.03259 10.354 2.7869 9.78795 2.34958 9.37062C1.33634 8.40371 1.46806 6.80167 2.62693 5.99739L7.95087 2.30246C9.1724 1.45468 10.8273 1.45468 12.0488 2.30246L17.3727 5.99739C18.5316 6.80167 18.6633 8.40371 17.6501 9.37062C17.2128 9.78795 16.9671 10.354 16.9671 10.9442V15.0089ZM9.99984 15C10.9203 15 11.6665 14.2538 11.6665 13.3333C11.6665 12.4128 10.9203 11.6666 9.99984 11.6666C9.07936 11.6666 8.33317 12.4128 8.33317 13.3333C8.33317 14.2538 9.07936 15 9.99984 15Z" fill="#FF3E2D"/>
<path fill-rule="evenodd" clip-rule="evenodd" d="M16.9671 15.0089C16.9671 16.8449 15.4074 18.3333 13.4835 18.3333H6.51621C4.59226 18.3333 3.03259 16.8449 3.03259 15.0089V10.9442C3.03259 10.354 2.7869 9.78795 2.34958 9.37062C1.33634 8.40371 1.46806 6.80167 2.62693 5.99739L7.95087 2.30246C9.1724 1.45468 10.8273 1.45468 12.0488 2.30246L17.3727 5.99739C18.5316 6.80167 18.6633 8.40371 17.6501 9.37062C17.2128 9.78795 16.9671 10.354 16.9671 10.9442V15.0089ZM9.99984 15C10.9203 15 11.6665 14.2538 11.6665 13.3333C11.6665 12.4128 10.9203 11.6666 9.99984 11.6666C9.07936 11.6666 8.33317 12.4128 8.33317 13.3333C8.33317 14.2538 9.07936 15 9.99984 15Z" fill="black" fill-opacity="0.2"/>
</svg>
