<svg width="24" height="24" viewBox="0 0 24 24" fill="none" xmlns="http://www.w3.org/2000/svg">
<path d="M10 16L10 18C10 19.1046 10.8954 20 12 20L19 20C20.1046 20 21 19.1046 21 18L21 6C21 4.89543 20.1046 4 19 4L12 4C10.8954 4 10 4.89543 10 6L10 8" stroke="white" stroke-width="1.6" stroke-linecap="round" stroke-linejoin="round"/>
<path d="M4 11.2C3.55817 11.2 3.2 11.5582 3.2 12C3.2 12.4418 3.55817 12.8 4 12.8L4 11.2ZM17 12L17.5657 12.5657C17.7945 12.3369 17.8629 11.9928 17.7391 11.6939C17.6153 11.3949 17.3236 11.2 17 11.2L17 12ZM13.4343 14.4343C13.1219 14.7467 13.1219 15.2533 13.4343 15.5657C13.7467 15.8781 14.2533 15.8781 14.5657 15.5657L13.4343 14.4343ZM14.5657 8.43431C14.2533 8.1219 13.7467 8.1219 13.4343 8.43432C13.1219 8.74673 13.1219 9.25327 13.4343 9.56569L14.5657 8.43431ZM16.4343 12.5657C16.7467 12.8781 17.2533 12.8781 17.5657 12.5657C17.8781 12.2533 17.8781 11.7467 17.5657 11.4343L16.4343 12.5657ZM4 12.8L17 12.8L17 11.2L4 11.2L4 12.8ZM16.4343 11.4343L13.4343 14.4343L14.5657 15.5657L17.5657 12.5657L16.4343 11.4343ZM13.4343 9.56569L16.4343 12.5657L17.5657 11.4343L14.5657 8.43431L13.4343 9.56569Z" fill="white"/>
</svg>
