<svg width="26" height="22" viewBox="0 0 26 22" fill="none" xmlns="http://www.w3.org/2000/svg">
<path d="M0.714787 9.93719C0.714846 9.93712 0.714918 9.93706 0.714998 9.93702C3.29907 8.52492 6.18356 7.3463 8.8787 6.16168C13.5155 4.22134 18.1706 2.31463 22.8728 0.539505C23.5197 0.32562 24.5313 0.11509 25.1252 0.485835C25.6675 0.824361 25.5836 1.60785 25.5268 2.24461C25.3856 3.82601 25.0995 5.40099 24.8922 6.97597C24.2602 11.1385 23.5296 15.2867 22.8171 19.4355C22.5716 20.8175 20.8267 21.5328 19.7102 20.6484C17.3204 19.0469 14.9142 17.4593 12.545 15.8313C11.9647 15.4326 11.2646 14.9772 11.3005 14.274C11.3352 13.5937 11.8673 12.8924 12.3861 12.4742C14.1051 10.7936 15.9049 9.3095 17.6055 7.66366C18.5762 6.7242 18.9584 5.35639 17.8102 6.06791C17.6402 6.17325 17.4879 6.27302 17.3793 6.342C14.3538 8.41045 11.4024 10.6052 8.21263 12.4231C6.58329 13.3129 4.68427 12.5525 3.05567 12.056C1.59549 11.4562 -0.544259 10.8518 0.714652 9.93732C0.714701 9.93728 0.714749 9.93724 0.714787 9.93719V9.93719Z" fill="white"/>
</svg>
