<svg width="35" height="35" viewBox="0 0 35 35" fill="none" xmlns="http://www.w3.org/2000/svg">
<ellipse cx="17.1268" cy="33.9801" rx="1.02331" ry="1.01994" fill="#FF3E2D"/>
<path fill-rule="evenodd" clip-rule="evenodd" d="M13.4643 30.7056C13.0785 30.7056 12.7656 31.0097 12.5032 31.2926C12.2868 31.5258 11.9771 31.6719 11.6331 31.6719C10.9787 31.6719 10.4482 31.1431 10.4482 30.4909C10.4482 29.8386 10.9787 29.3099 11.6331 29.3099C11.977 29.3099 12.2867 29.4559 12.5032 29.6892C12.7656 29.972 13.0785 30.2761 13.4643 30.2761V30.2761C13.8502 30.2761 14.1631 29.972 14.4255 29.6892C14.642 29.456 14.9517 29.3099 15.2955 29.3099C15.6394 29.3099 15.9491 29.4559 16.1655 29.6892C16.428 29.972 16.741 30.2761 17.1268 30.2761V30.2761C17.5126 30.2761 17.8255 29.972 18.088 29.6892C18.3045 29.4559 18.6141 29.3099 18.958 29.3099C19.302 29.3099 19.6117 29.456 19.8281 29.6893C20.0905 29.9721 20.4033 30.2761 20.789 30.2761V30.2761C21.1748 30.2761 21.4876 29.9721 21.7499 29.6893C21.9664 29.456 22.2761 29.3099 22.6201 29.3099C23.2745 29.3099 23.805 29.8387 23.805 30.4909C23.805 31.1432 23.2745 31.6719 22.6201 31.6719C22.2761 31.6719 21.9663 31.5258 21.7499 31.2924C21.4876 31.0097 21.1747 30.7056 20.789 30.7056V30.7056C20.4034 30.7056 20.0905 31.0097 19.8282 31.2924C19.6118 31.5258 19.302 31.6719 18.958 31.6719C18.6141 31.6719 18.3044 31.5258 18.0879 31.2926C17.8255 31.0098 17.5126 30.7056 17.1268 30.7056V30.7056C16.741 30.7056 16.4281 31.0098 16.1656 31.2926C15.9492 31.5258 15.6395 31.6719 15.2955 31.6719C14.9516 31.6719 14.6419 31.5258 14.4255 31.2926C14.163 31.0098 13.8501 30.7056 13.4643 30.7056V30.7056Z" fill="#FF3E2D"/>
<path fill-rule="evenodd" clip-rule="evenodd" d="M9.88283 26.8945C9.26772 26.8945 8.76631 27.4205 8.26384 27.7753C8.04423 27.9304 7.77597 28.0215 7.48635 28.0215C6.74272 28.0215 6.13989 27.4207 6.13989 26.6795C6.13989 25.9383 6.74272 25.3375 7.48635 25.3375C7.77615 25.3375 8.04457 25.4287 8.26425 25.584C8.76656 25.939 9.26793 26.4651 9.88301 26.465V26.465C10.498 26.465 10.9993 25.939 11.5015 25.584C11.7212 25.4288 11.9897 25.3375 12.2795 25.3375C12.5691 25.3375 12.8374 25.4286 13.057 25.5837C13.5596 25.9386 14.0611 26.4649 14.6764 26.4648V26.4648C15.2916 26.4648 15.7931 25.9386 16.2956 25.5838C16.5152 25.4287 16.7835 25.3375 17.0732 25.3375C17.3628 25.3375 17.6311 25.4286 17.8507 25.5837C18.3532 25.9386 18.8547 26.4647 19.4698 26.4646V26.4646C20.0849 26.4646 20.5863 25.9386 21.0888 25.5838C21.3084 25.4287 21.5767 25.3375 21.8663 25.3375C22.1558 25.3375 22.4239 25.4285 22.6434 25.5834C23.1462 25.9382 23.6479 26.4645 24.2632 26.4644V26.4644C24.8785 26.4644 25.3801 25.9383 25.8828 25.5835C26.1023 25.4286 26.3705 25.3375 26.66 25.3375C27.4036 25.3375 28.0064 25.9383 28.0064 26.6795C28.0064 27.4207 27.4036 28.0215 26.66 28.0215C26.3702 28.0215 26.1018 27.9303 25.8822 27.7751C25.3797 27.4201 24.8783 26.8939 24.2631 26.8939V26.8939C23.6479 26.8939 23.1466 27.4201 22.6442 27.7751C22.4245 27.9303 22.1561 28.0215 21.8663 28.0215C21.5766 28.0215 21.3082 27.9303 21.0885 27.7751C20.5862 27.4202 20.0848 26.8941 19.4697 26.8941V26.8941C18.8546 26.8941 18.3533 27.4201 17.851 27.7751C17.6314 27.9303 17.363 28.0215 17.0732 28.0215C16.7836 28.0215 16.5154 27.9304 16.2958 27.7754C15.7931 27.4205 15.2915 26.8943 14.6762 26.8943V26.8943C14.061 26.8943 13.5595 27.4205 13.057 27.7754C12.8373 27.9304 12.5691 28.0215 12.2795 28.0215C11.9899 28.0215 11.7217 27.9304 11.5021 27.7754C10.9995 27.4206 10.498 26.8945 9.88283 26.8945V26.8945Z" fill="#FF3E2D"/>
<path fill-rule="evenodd" clip-rule="evenodd" d="M22.108 22.8144C21.4953 22.8144 21 23.3319 20.526 23.7201C20.275 23.9256 19.9537 24.049 19.6035 24.049C19.2532 24.049 18.9318 23.9256 18.6808 23.72C18.2069 23.3318 17.7118 22.8144 17.0992 22.8144V22.8144C16.4866 22.8144 15.9915 23.3318 15.5176 23.7199C15.2666 23.9256 14.9452 24.049 14.5949 24.049C14.2446 24.049 13.9233 23.9256 13.6722 23.72C13.1984 23.3318 12.7032 22.8144 12.0906 22.8144V22.8144C11.4781 22.8144 10.9829 23.3318 10.509 23.7199C10.258 23.9256 9.93663 24.049 9.58635 24.049C9.23614 24.049 8.91485 23.9256 8.66385 23.7201C8.18981 23.3319 7.69452 22.8144 7.08183 22.8144V22.8144C6.46911 22.8144 5.97379 23.332 5.49974 23.7202C5.24873 23.9257 4.92743 24.0491 4.57722 24.0491C3.7741 24.0491 3.12305 23.4002 3.12305 22.5997C3.12305 21.7993 3.7741 21.1504 4.57722 21.1504C4.9274 21.1504 5.24867 21.2737 5.49967 21.4792C5.97373 21.8674 6.46904 22.3849 7.08173 22.3849V22.3849C7.69446 22.3849 8.1898 21.8673 8.66387 21.4791C8.91487 21.2736 9.23615 21.1502 9.58635 21.1502C9.93665 21.1502 10.258 21.2737 10.5091 21.4794C10.9829 21.8675 11.4781 22.3849 12.0906 22.3849V22.3849C12.7032 22.3849 13.1983 21.8675 13.6722 21.4794C13.9232 21.2737 14.2446 21.1502 14.5949 21.1502C14.9452 21.1502 15.2666 21.2737 15.5176 21.4794C15.9915 21.8675 16.4867 22.3849 17.0992 22.3849V22.3849C17.7117 22.3849 18.2069 21.8675 18.6808 21.4794C18.9318 21.2737 19.2532 21.1502 19.6035 21.1502C19.9537 21.1502 20.275 21.2736 20.526 21.4792C21 21.8674 21.4953 22.3849 22.108 22.3849V22.3849C22.7207 22.3849 23.216 21.8674 23.6901 21.4792C23.9411 21.2736 24.2624 21.1502 24.6126 21.1502C24.9628 21.1502 25.2841 21.2736 25.5351 21.4792C26.0091 21.8674 26.5044 22.3849 27.1171 22.3849V22.3849C27.7298 22.3849 28.2251 21.8674 28.6991 21.4792C28.9501 21.2736 29.2714 21.1502 29.6216 21.1502C30.4247 21.1502 31.0758 21.7992 31.0758 22.5996C31.0758 23.4001 30.4247 24.049 29.6216 24.049C29.2714 24.049 28.9501 23.9256 28.6991 23.7201C28.2251 23.3319 27.7298 22.8144 27.1171 22.8144V22.8144C26.5044 22.8144 26.0091 23.3319 25.5351 23.7201C25.2841 23.9256 24.9628 24.049 24.6126 24.049C24.2624 24.049 23.9411 23.9256 23.6901 23.7201C23.2161 23.3319 22.7207 22.8144 22.108 22.8144V22.8144Z" fill="#FF3E2D"/>
<path fill-rule="evenodd" clip-rule="evenodd" d="M6.43619 18.4663C5.33341 18.4663 4.36803 19.5515 3.29722 19.8151C3.1727 19.8458 3.04249 19.8621 2.90847 19.8621C2.01612 19.8621 1.29272 19.1411 1.29272 18.2516C1.29272 17.3622 2.01612 16.6412 2.90847 16.6412C3.04243 16.6412 3.17257 16.6575 3.29704 16.6881C4.36797 16.9516 5.33348 18.0369 6.43635 18.0369V18.0369C7.53916 18.0369 8.50461 16.9517 9.57548 16.6882C9.69995 16.6576 9.8301 16.6413 9.96407 16.6413C10.0981 16.6413 10.2283 16.6576 10.3528 16.6882C11.4236 16.9519 12.3889 18.0369 13.4916 18.0369V18.0369C14.5943 18.0369 15.5596 16.9519 16.6304 16.6882C16.7549 16.6576 16.8851 16.6413 17.0191 16.6413C17.1531 16.6413 17.2832 16.6576 17.4077 16.6882C18.4786 16.9517 19.444 18.0369 20.5469 18.0369V18.0369C21.6497 18.0369 22.6151 16.9517 23.686 16.6882C23.8105 16.6576 23.9406 16.6413 24.0746 16.6413C24.2084 16.6413 24.3384 16.6575 24.4627 16.6881C25.5339 16.9514 26.4997 18.0369 27.6028 18.0369V18.0369C28.7058 18.0369 29.6716 16.9514 30.7428 16.6881C30.8671 16.6575 30.9971 16.6413 31.1309 16.6413C32.0233 16.6413 32.7467 17.3623 32.7467 18.2518C32.7467 19.1412 32.0233 19.8622 31.1309 19.8622C30.997 19.8622 30.8669 19.8459 30.7425 19.8153C29.6714 19.5519 28.7058 18.4663 27.6028 18.4663V18.4663C26.4997 18.4663 25.5341 19.5519 24.463 19.8153C24.3386 19.8459 24.2085 19.8622 24.0746 19.8622C23.9405 19.8622 23.8103 19.8459 23.6857 19.8152C22.6149 19.5515 21.6496 18.4663 20.5469 18.4663V18.4663C19.4441 18.4663 18.4788 19.5515 17.408 19.8152C17.2834 19.8459 17.1532 19.8622 17.0191 19.8622C16.885 19.8622 16.7547 19.8459 16.6301 19.8152C15.5594 19.5514 14.5942 18.4663 13.4916 18.4663V18.4663C12.389 18.4663 11.4237 19.5514 10.3531 19.8152C10.2285 19.8459 10.0982 19.8622 9.96407 19.8622C9.83005 19.8622 9.69985 19.8459 9.57534 19.8153C8.50447 19.5517 7.53903 18.4663 6.43619 18.4663V18.4663Z" fill="#FF3E2D"/>
<path fill-rule="evenodd" clip-rule="evenodd" d="M6.68375 13.7425C5.1689 13.7425 3.72347 15.3528 2.20862 15.3528V15.3528C1.19729 15.3528 0.377441 14.5356 0.377441 13.5276C0.377441 12.5196 1.19729 11.7025 2.20862 11.7025V11.7025C3.72357 11.7025 5.16912 13.313 6.68407 13.313H7.64315C9.15808 13.313 10.6036 11.7025 12.1185 11.7025V11.7025V11.7025C13.6335 11.7025 15.079 13.313 16.5939 13.313H17.5535C19.0684 13.313 20.514 11.7025 22.0289 11.7025V11.7025C22.0559 11.7025 22.0827 11.7031 22.1094 11.7042C22.136 11.7031 22.1628 11.7025 22.1898 11.7025V11.7025C23.7047 11.7025 25.1503 13.313 26.6652 13.313H27.463C28.978 13.313 30.4235 11.7025 31.9384 11.7025V11.7025C32.9498 11.7025 33.7696 12.5197 33.7696 13.5277C33.7696 14.5357 32.9498 15.3528 31.9384 15.3528V15.3528C30.4236 15.3528 28.9781 13.7425 27.4633 13.7425H26.665C25.1501 13.7425 23.7047 15.3528 22.1898 15.3528V15.3528C22.1628 15.3528 22.136 15.3522 22.1094 15.3511C22.0827 15.3522 22.0559 15.3528 22.0289 15.3528V15.3528C20.514 15.3528 19.0686 13.7425 17.5537 13.7425H16.5937C15.0789 13.7425 13.6334 15.3528 12.1185 15.3528V15.3528V15.3528C10.6037 15.3528 9.15823 13.7425 7.64336 13.7425H6.68375Z" fill="#FF3E2D"/>
<path fill-rule="evenodd" clip-rule="evenodd" d="M26.0432 6.6615C26.7229 7.26364 27.4479 8.0522 28.356 8.0522V8.0522C29.264 8.0522 29.989 7.26364 30.6687 6.6615C31.0491 6.32444 31.5503 6.1197 32.0993 6.1197C33.2891 6.1197 34.2537 7.08105 34.2537 8.26694C34.2537 9.45282 33.2891 10.4142 32.0993 10.4142C31.5502 10.4142 31.0491 10.2094 30.6687 9.87236C29.989 9.27022 29.264 8.48165 28.356 8.48165V8.48165C27.4479 8.48165 26.7229 9.27022 26.0432 9.87236C25.6628 10.2094 25.1617 10.4142 24.6126 10.4142C24.0633 10.4142 23.5621 10.2093 23.1816 9.87205C22.5022 9.26994 21.7774 8.48165 20.8697 8.48165V8.48165C19.9619 8.48165 19.2371 9.26994 18.5578 9.87205C18.1772 10.2093 17.676 10.4142 17.1267 10.4142C16.5776 10.4142 16.0764 10.2094 15.6959 9.87223C15.0164 9.2701 14.2915 8.48165 13.3836 8.48165V8.48165C12.4756 8.48165 11.7507 9.2701 11.0712 9.87223C10.6907 10.2094 10.1895 10.4142 9.64038 10.4142C9.09121 10.4142 8.59003 10.2094 8.20953 9.8722C7.53004 9.27007 6.80514 8.48165 5.89724 8.48165V8.48165C4.98934 8.48165 4.26444 9.27009 3.58494 9.87222C3.20444 10.2094 2.70326 10.4142 2.15409 10.4142C0.964283 10.4142 -0.000244141 9.45285 -0.000244141 8.26696C-0.000244141 7.08107 0.964283 6.11972 2.15409 6.11972C2.70324 6.11972 3.20441 6.32452 3.5849 6.66167C4.26442 7.26378 4.98932 8.0522 5.89722 8.0522V8.0522C6.80513 8.0522 7.53004 7.26377 8.20956 6.66165C8.59005 6.3245 9.09122 6.1197 9.64038 6.1197C10.1895 6.1197 10.6907 6.32449 11.0712 6.66163C11.7507 7.26376 12.4756 8.0522 13.3836 8.0522V8.0522C14.2915 8.0522 15.0164 7.26376 15.6959 6.66163C16.0764 6.32449 16.5776 6.1197 17.1267 6.1197C17.676 6.1197 18.1772 6.32456 18.5577 6.66181C19.2371 7.26392 19.9619 8.0522 20.8697 8.0522V8.0522C21.7774 8.0522 22.5022 7.26392 23.1816 6.66181C23.5621 6.32456 24.0633 6.1197 24.6126 6.1197C25.1617 6.1197 25.6628 6.32444 26.0432 6.6615Z" fill="#FF3E2D"/>
<path fill-rule="evenodd" clip-rule="evenodd" d="M31.1285 2.41562C31.1285 3.74974 30.0434 4.83127 28.7049 4.83127C27.9568 4.83127 27.288 4.4935 26.8434 3.96265C26.3111 3.32704 25.6549 2.6304 24.8259 2.6304V2.6304C23.9968 2.6304 23.3407 3.32704 22.8084 3.96265C22.3638 4.4935 21.6949 4.83127 20.9469 4.83127C20.1989 4.83127 19.5301 4.49357 19.0855 3.96281C18.5531 3.32716 17.8969 2.6304 17.0677 2.6304V2.6304C16.2385 2.6304 15.5823 3.32716 15.0498 3.96281C14.6052 4.49357 13.9364 4.83127 13.1885 4.83127C12.2025 4.83127 11.3541 4.24449 10.9755 3.40219C10.7896 2.98856 10.4266 2.6304 9.97307 2.6304V2.6304C9.51957 2.6304 9.15648 2.98859 8.97059 3.40224C8.59203 4.24458 7.74358 4.83141 6.75761 4.83141C5.41908 4.83141 4.33398 3.74988 4.33398 2.41576C4.33398 1.08164 5.41908 0.000116198 6.75761 0.000116198C7.74353 0.000116198 8.59196 0.586884 8.97054 1.42917C9.15645 1.84279 9.51953 2.20095 9.97301 2.20095V2.20095C10.4265 2.20095 10.7896 1.84277 10.9755 1.42911C11.3541 0.586784 12.2025 -2.30653e-05 13.1885 -2.30653e-05C13.9365 -2.30653e-05 14.6053 0.337708 15.0499 0.868522C15.5823 1.50419 16.2385 2.20095 17.0677 2.20095V2.20095C17.8969 2.20095 18.5531 1.50419 19.0855 0.868522C19.53 0.337708 20.1989 -2.30653e-05 20.9469 -2.30653e-05C21.695 -2.30653e-05 22.3639 0.337778 22.8084 0.868686C23.3407 1.50431 23.9968 2.20095 24.8259 2.20095V2.20095C25.6549 2.20095 26.311 1.50431 26.8433 0.868686C27.2879 0.337778 27.9568 -2.30653e-05 28.7049 -2.30653e-05C30.0434 -2.30653e-05 31.1285 1.0815 31.1285 2.41562Z" fill="#FF3E2D"/>
</svg>
